<?xml version="1.0" encoding="utf-8"?>
<!-- Generator: Adobe Illustrator 25.0.0, SVG Export Plug-In . SVG Version: 6.00 Build 0)  -->
<svg version="1.1" id="Layer_1" xmlns="http://www.w3.org/2000/svg" xmlns:xlink="http://www.w3.org/1999/xlink" x="0px" y="0px"
	 viewBox="0 0 20 25.425" style="enable-background:new 0 0 20 25.425;" xml:space="preserve" width="30px" height="38px">
<style type="text/css">
	.st0{opacity:0.4;fill:url(#SVGID_1_);}
	.st1{fill:#FFFFFF;}
	.st2{opacity:0.4;fill:url(#SVGID_2_);}
	.st3{fill:#00A651;}
	.st4{fill:#FBB040;}
	.st5{fill:#39B54A;}
	.st6{fill:#EC2029;}
	.st7{opacity:0.4;fill:url(#SVGID_3_);}
	.st8{fill:#27AAE1;}
	.st9{opacity:0.4;fill:url(#SVGID_4_);}
	.st10{opacity:0.4;fill:url(#SVGID_5_);}
	.st11{opacity:0.4;fill:url(#SVGID_6_);}
	.st12{opacity:0.4;fill:url(#SVGID_7_);}
</style>
<g>
	<g>
		<g>
			<circle class="st1" cx="9.818" cy="9.939" r="7.053"/>

				<radialGradient id="SVGID_1_" cx="9.7493" cy="-478.5125" r="5.133" gradientTransform="matrix(1 0 0 0.2874 0 161.4861)" gradientUnits="userSpaceOnUse">
				<stop  offset="0" style="stop-color:#000000"/>
				<stop  offset="1" style="stop-color:#000000;stop-opacity:0"/>
			</radialGradient>
			<ellipse class="st0" cx="9.749" cy="23.949" rx="5.133" ry="1.475"/>
			<path class="st5" d="M10.199,22.811c-0.004,0.005-0.009,0.01-0.013,0.015C10.192,22.819,10.196,22.814,10.199,22.811z"/>
			<path class="st1" d="M9.748,23.949c-0.331,0-0.646-0.143-0.864-0.392c-1.335-1.524-6.505-7.427-6.513-7.435l-0.004-0.004
				c-0.749-0.867-1.333-1.844-1.737-2.906C0.212,12.11,0,10.945,0,9.75C0,4.374,4.373,0,9.749,0c5.376,0,9.75,4.374,9.75,9.75
				c0,2.302-0.802,4.518-2.259,6.24l-0.001-0.001c-0.142,0.165-1.013,1.161-6.627,7.568C10.394,23.806,10.079,23.949,9.748,23.949z"
				/>
			<path class="st5" d="M18.696,9.75c0,2.185-0.787,4.206-2.069,5.722c-0.002,0.003-5.35,6.109-6.619,7.557
				c-0.138,0.158-0.383,0.158-0.522,0c-1.243-1.42-6.51-7.433-6.513-7.436C1.62,14.027,0.802,11.997,0.802,9.75
				c0-4.934,4.013-8.948,8.947-8.948S18.696,4.816,18.696,9.75z"/>
			<line class="st5" x1="10.207" y1="22.803" x2="10.201" y2="22.809"/>
		</g>
		<g>
			<path class="st1" d="M13.872,10.812c0.009-0.032,0.014-0.051,0.025-0.088c-0.133,0.051-0.252,0.096-0.381,0.145
				c0.001-0.147-0.072-0.052-0.437,0.099c-0.005-0.038-0.009-0.064-0.013-0.095c-0.154,0.039-0.267,0.158-0.425,0.197
				c0-0.039,0-0.06,0-0.106c-0.14,0.081-0.268,0.154-0.402,0.231c-0.006-0.034-0.01-0.055-0.016-0.093
				c-0.121,0.088-0.231,0.17-0.345,0.253c-0.038-0.11,0.019-0.111-0.334,0.162c-0.015,0.011-0.046,0.025-0.053,0.019
				c-0.059-0.055-0.075,0.006-0.406,0.282c-0.006-0.007-0.012-0.014-0.018-0.021c0.027-0.025,0.054-0.048,0.08-0.074
				c0.052-0.051,0.131-0.094,0.149-0.155c0.033-0.111,0.1-0.15,0.379-0.394c-0.025-0.019-0.039-0.029-0.06-0.045
				c0.143-0.134,0.281-0.263,0.425-0.398c-0.134-0.067,0.03-0.103,0.3-0.432c-0.033-0.014-0.055-0.023-0.088-0.037
				c0.312-0.405,0.407-0.365,0.223-0.404c0.128-0.217,0.224-0.294,0.297-0.454c-0.047-0.005-0.078-0.008-0.125-0.013
				c0.178-0.33,0.368-0.48,0.221-0.488c-0.112-0.006-0.027-0.079,0.14-0.371c0.056-0.098,0.054-0.101-0.043-0.152
				c0.034-0.146,0.152-0.26,0.181-0.417c-0.038,0.003-0.064,0.005-0.102,0.008c0.143-0.317,0.268-0.415,0.143-0.44
				c-0.154-0.031,0.15-0.169,0.093-0.416c-0.148,0.055-0.16,0.116-0.235,0.273c-0.019,0.039-0.045,0.055-0.077,0.017
				c-0.042-0.05-0.072-0.033-0.1,0.013c-0.24,0.398-0.2,0.354-0.262,0.227c-0.145,0.206-0.197,0.295-0.227,0.335
				c-0.012,0.016-0.06,0.029-0.068,0.021c-0.051-0.054-0.077-0.015-0.099,0.024c-0.157,0.271-0.088,0.182-0.235,0.392
				c-0.123-0.148-0.086-0.105-0.29,0.298c-0.015,0.03-0.04,0.055-0.062,0.086c-0.03-0.037-0.05-0.062-0.085-0.104
				c-0.08,0.173-0.152,0.331-0.23,0.498c-0.03-0.036-0.047-0.056-0.079-0.096c-0.055,0.17-0.105,0.325-0.158,0.488
				c-0.033-0.028-0.051-0.043-0.083-0.071c-0.05,0.177-0.096,0.342-0.146,0.52c-0.126-0.096-0.074,0.125-0.211,0.527
				c-0.076-0.03-0.048-0.049-0.105,0.124c-0.007-0.001-0.014-0.002-0.021-0.004c0.006-0.13-0.011,0.004,0.186-0.672
				c0.005-0.019-0.009-0.062-0.014-0.062c-0.088,0.002-0.061-0.057-0.05-0.099c0.195-0.773,0.174-0.523,0.02-0.574
				c0.021-0.249,0.12-0.451,0.109-0.646c-0.184,0.098-0.122,0.109-0.072-0.574c0.005-0.067-0.023-0.081-0.078-0.05
				c-0.075,0.042-0.096,0.033-0.095-0.054c0.006-0.451,0.089-0.695-0.047-0.61c-0.074,0.046-0.093,0.039-0.095-0.046
				c-0.01-0.432,0.036-0.632-0.07-0.61c-0.073,0.015-0.086,0.009-0.093-0.068c-0.044-0.55,0.01-0.547-0.161-0.446
				c-0.063-0.519,0.048-0.622-0.127-0.584C9.804,5.612,9.844,5.561,9.854,5.301c0.004-0.096-0.043-0.173-0.101-0.249
				c-0.216,0.275,0.016,0.573-0.15,0.539C9.396,5.55,9.531,5.659,9.457,6.179c-0.06-0.045-0.032-0.027-0.1-0.069
				C9.347,6.13,9.331,6.148,9.329,6.168C9.288,6.558,9.336,6.744,9.226,6.69C9.086,6.622,9.149,6.867,9.138,7.291
				c-0.002,0.09-0.02,0.096-0.098,0.049C8.823,7.209,9.13,8.151,8.915,8.017C8.817,7.955,8.813,8.015,8.827,8.14
				c0.083,0.747,0.056,0.482-0.08,0.502c0,0.216,0.108,0.424,0.108,0.644C8.756,9.269,8.729,9.24,8.749,9.341
				c0.09,0.46,0.218,0.616,0.086,0.605C8.828,9.946,8.81,9.972,8.811,9.985c0.003,0.054,0.02,0.082,0.18,0.603
				c0.009,0.03,0.01,0.062,0.014,0.093c-0.008,0.002-0.016,0.004-0.024,0.005c-0.059-0.172-0.032-0.155-0.108-0.124
				c-0.135-0.439-0.078-0.601-0.212-0.537C8.613,9.855,8.567,9.69,8.518,9.514C8.482,9.545,8.464,9.56,8.438,9.582
				C8.361,9.431,8.355,9.258,8.267,9.109C8.24,9.141,8.224,9.16,8.196,9.193c-0.078-0.168-0.151-0.325-0.23-0.496
				C7.93,8.742,7.91,8.768,7.879,8.806C7.557,8.289,7.666,8.238,7.531,8.422C7.384,8.207,7.44,8.276,7.288,8.015
				C7.27,7.985,7.244,7.951,7.209,7.994C7.146,8.071,7.151,7.989,6.897,7.647C6.879,7.688,6.868,7.712,6.852,7.75
				c-0.162-0.216-0.1-0.157-0.225-0.342c-0.01-0.015-0.05-0.027-0.064-0.019c-0.081,0.046-0.08,0.048-0.121-0.038
				C6.373,7.203,6.364,7.177,6.22,7.114c0,0.101-0.037,0.064,0.122,0.337c0.025,0.043,0.03,0.072-0.027,0.084
				C6.26,7.546,6.257,7.579,6.28,7.621c0.226,0.416,0.214,0.355,0.065,0.344c0.127,0.264,0.073,0.153,0.204,0.419
				c-0.152,0.06-0.106,0.04,0.131,0.463c0.021,0.037,0.015,0.059-0.034,0.062C6.48,8.92,6.686,9.018,6.855,9.394
				c-0.163,0.02-0.177-0.04,0.181,0.463C6.993,9.868,6.968,9.874,6.92,9.886c0.118,0.131,0.226,0.251,0.339,0.377
				c-0.038,0.016-0.06,0.025-0.092,0.038c0.269,0.33,0.423,0.353,0.305,0.438c0.143,0.134,0.281,0.262,0.421,0.394
				c-0.025,0.016-0.039,0.026-0.075,0.049c0.437,0.312,0.385,0.395,0.43,0.443c0.024,0.026,0.122,0.106,0.19,0.176
				c-0.005,0.006-0.01,0.012-0.015,0.017c-0.113-0.082-0.152-0.127-0.31-0.261c-0.02-0.017-0.06-0.041-0.067-0.035
				c-0.061,0.051-0.077,0-0.353-0.217c-0.011-0.009-0.027-0.011-0.042-0.016c-0.008,0.023-0.014,0.04-0.023,0.066
				c-0.117-0.085-0.228-0.166-0.349-0.254c-0.004,0.042-0.006,0.061-0.009,0.096c-0.136-0.078-0.264-0.152-0.404-0.232
				c-0.002,0.047-0.003,0.071-0.005,0.116c-0.145-0.075-0.279-0.144-0.421-0.217c-0.005,0.045-0.008,0.069-0.012,0.102
				c-0.329-0.114-0.428-0.259-0.445-0.098c-0.125-0.048-0.242-0.094-0.371-0.143c0.009,0.038,0.013,0.058,0.021,0.091
				c-0.349-0.112-0.335-0.204-0.396-0.067c-0.001,0.003-0.007,0.005-0.016,0.01c-0.2-0.103-0.112-0.072-0.332-0.111
				c0.056,0.154,0.2,0.153,0.295,0.219c-0.067,0.116-0.071,0.072,0.303,0.266c-0.032,0.018-0.049,0.028-0.083,0.047
				c0.123,0.068,0.235,0.13,0.349,0.193C5.73,11.4,5.719,11.416,5.698,11.445c0.14,0.067,0.275,0.132,0.417,0.199
				c-0.031,0.03-0.049,0.046-0.081,0.077c0.151,0.063,0.291,0.122,0.44,0.185c-0.031,0.03-0.049,0.046-0.082,0.077
				c0.15,0.056,0.288,0.108,0.43,0.161c-0.02,0.027-0.033,0.044-0.054,0.072c0.142,0.035,0.273,0.067,0.407,0.1
				c-0.042,0.103-0.081,0.059,0.322,0.147c0.025,0.006,0.068,0.022,0.068,0.033c-0.001,0.06,0.043,0.055,0.078,0.062
				c0.041,0.008,0.049,0.007,0.401,0.067c-0.014,0.067-0.038,0.04,0.138,0.093c-0.001,0.009-0.003,0.018-0.004,0.028
				c-0.058,0.007-0.116,0.011-0.173,0.021c-0.021,0.004-0.058,0.026-0.057,0.031c0.013,0.047-0.024,0.043-0.047,0.049
				c-0.236,0.065-0.216,0.03-0.168,0.114c-0.089,0.029-0.174,0.056-0.26,0.084c0.039,0.089,0.054,0.045-0.169,0.135
				c-0.018,0.007-0.047,0.034-0.044,0.041c0.017,0.046-0.019,0.051-0.043,0.063c-0.172,0.081-0.163,0.046-0.125,0.113
				c-0.071,0.03-0.138,0.057-0.207,0.086c0.008,0.025,0.013,0.043,0.02,0.063c-0.063,0.033-0.147,0.025-0.178,0.107
				c0.077,0.041,0.136-0.022,0.202-0.033c0.01,0.019,0.019,0.037,0.031,0.059c0.071-0.023,0.14-0.045,0.21-0.068
				c0.013,0.078-0.015,0.056,0.164,0.009c0.021-0.005,0.061-0.009,0.063-0.003c0.024,0.067,0.044,0.037,0.255-0.04
				c0.006-0.002,0.013,0.001,0.019,0.001c0.007,0.019,0.013,0.037,0.02,0.058c0.086-0.035,0.167-0.069,0.255-0.105
				c0,0.1-0.018,0.083,0.251-0.042c0.005,0.019,0.009,0.033,0.015,0.056c0.072-0.045,0.138-0.087,0.205-0.13
				c0.002,0.008,0.003,0.016,0.005,0.024c0.024-0.003,0.051,0.002,0.071-0.009c0.048-0.027,0.089-0.064,0.138-0.089
				c0.036-0.019,0.091-0.014,0.118-0.04c0.112-0.11,0.28-0.125,0.387-0.244c0.037-0.041,0.105-0.056,0.16-0.08
				c0.029-0.013,0.257,0.036,0.296,0.041C9.693,13.029,9.665,13.032,9.596,14c-0.014,0.192-0.016,0.192,0.178,0.192
				c0.15,0,0.149,0,0.138-0.154c-0.069-1.008-0.097-1.008-0.011-1.02c0.356-0.049,0.197-0.117,0.625,0.157
				c0.006,0.004,0.015,0.01,0.018,0.008c0.05-0.029,0.073,0.015,0.104,0.037c0.041,0.029,0.08,0.061,0.12,0.091
				c0.012,0.009,0.036,0.024,0.04,0.02c0.043-0.036,0.066,0.006,0.093,0.022c0.137,0.084,0.056,0.072,0.182,0.081
				c0.002-0.006,0.004-0.013,0.006-0.019c0.065,0.042,0.13,0.083,0.201,0.128c0.01-0.038,0.005-0.024,0.018-0.055
				c0.083,0.038,0.16,0.075,0.241,0.112c0.006-0.026,0.01-0.044,0.016-0.068c0.087,0.036,0.167,0.069,0.251,0.104
				c0.022-0.095-0.019-0.076,0.212,0.004c0.018,0.006,0.054,0.012,0.057,0.006c0.029-0.06,0.044-0.038,0.24,0.018
				c0.003-0.021,0.005-0.035,0.008-0.055c0.073,0.024,0.142,0.046,0.212,0.068c0.012-0.024,0.021-0.042,0.03-0.06
				c0.068,0.012,0.125,0.079,0.223,0.019c-0.074-0.037-0.134-0.067-0.197-0.099c0.005-0.016,0.01-0.035,0.017-0.058
				c-0.07-0.029-0.137-0.057-0.208-0.086c0.045-0.067,0.05-0.029-0.125-0.113c-0.018-0.009-0.046-0.035-0.043-0.043
				c0.017-0.047-0.019-0.052-0.044-0.061c-0.225-0.089-0.202-0.045-0.169-0.135c-0.088-0.028-0.172-0.055-0.257-0.082
				c0.044-0.085,0.066-0.049-0.171-0.115c-0.017-0.005-0.047-0.017-0.046-0.021c0.013-0.067-0.002-0.05-0.231-0.079
				c0-0.009-0.001-0.019-0.001-0.028c0.05-0.014,0.1-0.029,0.151-0.043c-0.029-0.061,0.022-0.056,0.049-0.06
				c0.39-0.068,0.348-0.041,0.417-0.094c0.018-0.014,0.029-0.04,0.048-0.048c0.017-0.007,0.357-0.076,0.374-0.08
				c-0.013-0.031-0.02-0.049-0.031-0.075c0.137-0.034,0.268-0.066,0.409-0.101c-0.024-0.03-0.037-0.046-0.053-0.066
				c0.132-0.079,0.29-0.087,0.427-0.179c-0.035-0.021-0.055-0.034-0.084-0.053c0.142-0.098,0.307-0.107,0.434-0.206
				c-0.026-0.024-0.043-0.04-0.072-0.067c0.144-0.069,0.278-0.133,0.417-0.199c-0.022-0.032-0.034-0.047-0.052-0.073
				c0.115-0.064,0.226-0.126,0.344-0.192c-0.033-0.021-0.049-0.031-0.079-0.051c0.382-0.19,0.359-0.153,0.303-0.266
				c0.097-0.06,0.236-0.064,0.287-0.197c-0.135-0.044-0.226,0.059-0.333,0.094C14.197,10.597,14.207,10.725,13.872,10.812z"/>
		</g>
	</g>
</g>
</svg>
