<?xml version="1.0" encoding="utf-8"?>
<!-- Generator: Adobe Illustrator 25.0.0, SVG Export Plug-In . SVG Version: 6.00 Build 0)  -->
<svg version="1.1" id="Layer_1" xmlns="http://www.w3.org/2000/svg" xmlns:xlink="http://www.w3.org/1999/xlink" x="0px" y="0px"
	 viewBox="0 0 20 25.425" style="enable-background:new 0 0 20 25.425;" xml:space="preserve" width="30px" height="38px">
<style type="text/css">
	.st0{opacity:0.4;fill:url(#SVGID_1_);}
	.st1{fill:#FFFFFF;}
	.st2{opacity:0.4;fill:url(#SVGID_2_);}
	.st3{fill:#00A651;}
	.st4{fill:#FBB040;}
	.st5{fill:#39B54A;}
	.st6{fill:#EC2029;}
	.st7{opacity:0.4;fill:url(#SVGID_3_);}
	.st8{fill:#27AAE1;}
	.st9{opacity:0.4;fill:url(#SVGID_4_);}
	.st10{opacity:0.4;fill:url(#SVGID_5_);}
	.st11{opacity:0.4;fill:url(#SVGID_6_);}
	.st12{opacity:0.4;fill:url(#SVGID_7_);}
</style>
<g>
	<g>
		<g>
			<circle class="st1" cx="9.818" cy="9.939" r="7.053"/>

				<radialGradient id="SVGID_1_" cx="9.7493" cy="-478.5125" r="5.133" gradientTransform="matrix(1 0 0 0.2874 0 161.4861)" gradientUnits="userSpaceOnUse">
				<stop  offset="0" style="stop-color:#000000"/>
				<stop  offset="1" style="stop-color:#000000;stop-opacity:0"/>
			</radialGradient>
			<ellipse class="st0" cx="9.749" cy="23.949" rx="5.133" ry="1.475"/>
			<path class="st5" d="M10.199,22.811c-0.004,0.005-0.009,0.01-0.013,0.015C10.192,22.819,10.196,22.814,10.199,22.811z"/>
			<path class="st1" d="M9.748,23.949c-0.331,0-0.646-0.143-0.864-0.392c-1.335-1.524-6.505-7.427-6.513-7.435l-0.004-0.004
				c-0.749-0.867-1.333-1.844-1.737-2.906C0.212,12.11,0,10.945,0,9.75C0,4.374,4.373,0,9.749,0c5.376,0,9.75,4.374,9.75,9.75
				c0,2.302-0.802,4.518-2.259,6.24l-0.001-0.001c-0.142,0.165-1.013,1.161-6.627,7.568C10.394,23.806,10.079,23.949,9.748,23.949z"
				/>
			<path class="st6" d="M18.696,9.75c0,2.185-0.787,4.206-2.069,5.722c-0.002,0.003-5.35,6.109-6.619,7.557
				c-0.138,0.158-0.383,0.158-0.522,0c-1.243-1.42-6.51-7.433-6.513-7.436C1.62,14.027,0.802,11.997,0.802,9.75
				c0-4.934,4.013-8.948,8.947-8.948S18.696,4.816,18.696,9.75z"/>
			<line class="st5" x1="10.207" y1="22.803" x2="10.201" y2="22.809"/>
		</g>
		<g id="Group_861_2_" transform="translate(-36.504 -7.859)">
			<path id="Path_947_2_" class="st1" d="M46.311,13.832v2.195c-0.009,0.564-0.472,1.015-1.036,1.008h-0.346v4.197
				c-0.008,0.302-0.26,0.541-0.562,0.533c-0.291-0.008-0.526-0.242-0.533-0.533v-3.655l0.836-0.542h-1.173
				c-0.563,0.01-1.027-0.438-1.037-1.001c0-0.002,0-0.004,0-0.007v-2.195h0.544v2.137h0.551v-2.137h0.551v2.137h0.544v-2.137h0.551
				v2.137h0.544v-2.137H46.311z"/>
			<path id="Path_948_2_" class="st1" d="M50.047,13.845v7.399c-0.011,0.297-0.261,0.529-0.558,0.517
				c-0.281-0.011-0.507-0.236-0.517-0.517v-2.373l0.863-0.555h-1.978v-2.098C47.881,14.987,48.822,13.968,50.047,13.845z"/>
		</g>
	</g>
</g>
</svg>
