<?xml version="1.0" encoding="utf-8"?>
<!-- Generator: Adobe Illustrator 25.0.0, SVG Export Plug-In . SVG Version: 6.00 Build 0)  -->
<svg version="1.1" id="Layer_1" xmlns="http://www.w3.org/2000/svg" xmlns:xlink="http://www.w3.org/1999/xlink" x="0px" y="0px"
	 viewBox="0 0 20 25.425" style="enable-background:new 0 0 20 25.425;" xml:space="preserve" width="30px" height="38px">
<style type="text/css">
	.st0{opacity:0.4;fill:url(#SVGID_1_);}
	.st1{fill:#FFFFFF;}
	.st2{opacity:0.4;fill:url(#SVGID_2_);}
	.st3{fill:#00A651;}
	.st4{fill:#FBB040;}
	.st5{fill:#39B54A;}
	.st6{fill:#EC2029;}
	.st7{opacity:0.4;fill:url(#SVGID_3_);}
	.st8{fill:#27AAE1;}
	.st9{opacity:0.4;fill:url(#SVGID_4_);}
	.st10{opacity:0.4;fill:url(#SVGID_5_);}
	.st11{opacity:0.4;fill:url(#SVGID_6_);}
	.st12{opacity:0.4;fill:url(#SVGID_7_);}
</style>
<radialGradient id="SVGID_1_" cx="9.7145" cy="-591.1274" r="5.133" gradientTransform="matrix(1 0 0 0.2874 0 193.8545)" gradientUnits="userSpaceOnUse">
	<stop  offset="0" style="stop-color:#000000"/>
	<stop  offset="1" style="stop-color:#000000;stop-opacity:0"/>
</radialGradient>
<ellipse class="st0" cx="9.715" cy="23.949" rx="5.133" ry="1.475"/>
<g>
	<g id="XMLID_2_">
		<g id="XMLID_3_">
			<path class="st5" d="M17.82,5.88c-0.36,0.17-0.77,0.27-1.2,0.27c-1.5,0-2.71-1.21-2.71-2.71c0-0.51,0.14-0.99,0.38-1.39
				c1.52,0.89,2.75,2.22,3.53,3.82V5.88z"/>
			<path class="st5" d="M17.82,5.87c-0.78-1.6-2.01-2.93-3.53-3.82c0.14-0.24,0.32-0.45,0.52-0.63c1.57,0.96,2.85,2.35,3.67,4
				C18.28,5.6,18.06,5.75,17.82,5.87z"/>
			<path class="st5" d="M18.48,5.42c-0.82-1.65-2.1-3.04-3.67-4c0.48-0.43,1.11-0.69,1.81-0.69c1.5,0,2.71,1.21,2.71,2.71
				C19.33,4.22,19,4.92,18.48,5.42z"/>
			<path class="st6" d="M13.54,5.99c-1.22,0.12-2.16,1.14-2.19,2.37v2.1h1.98l-0.86,0.55v2.37c0.01,0.29,0.23,0.51,0.52,0.52
				c0.29,0.01,0.54-0.22,0.55-0.52V5.99z M9.01,22.49c-1.75-2-6.03-6.89-6.04-6.9C1.62,14.03,0.8,12,0.8,9.75
				c0-4.93,4.02-8.95,8.95-8.95c1.42,0,2.77,0.33,3.96,0.93c-0.3,0.5-0.47,1.09-0.47,1.71c0,1.87,1.52,3.38,3.38,3.38
				c0.52,0,1.02-0.12,1.46-0.34c0.4,1.01,0.62,2.12,0.62,3.27c0,2.18-0.79,4.21-2.07,5.72c0,0-4.37,4.99-6.14,7.02
				c-0.11,0.11-0.2,0.22-0.28,0.31l-0.01,0.01c-0.07,0.09-0.13,0.16-0.19,0.22c-0.14,0.16-0.39,0.16-0.52,0
				C9.37,22.89,9.21,22.71,9.01,22.49z M5.96,8.17c0.01,0.57,0.47,1.01,1.03,1.01h1.18L7.33,9.72v3.65
				c0.01,0.29,0.24,0.53,0.53,0.54c0.31,0,0.56-0.24,0.57-0.54V9.18h0.34c0.57,0,1.03-0.45,1.04-1.01v-2.2H9.24v2.14H8.7V5.97H8.15
				v2.14H7.6V5.97H7.05v2.14H6.5V5.97H5.96V8.17z"/>
			<g>
				<path class="st1" d="M20,3.44c0-1.86-1.52-3.38-3.38-3.38c-0.94,0-1.8,0.39-2.42,1.02C12.87,0.39,11.35,0,9.75,0
					C4.37,0,0,4.37,0,9.75c0,1.2,0.21,2.36,0.63,3.46c0.4,1.06,0.99,2.04,1.74,2.91c0.01,0.01,3.69,4.21,5.64,6.44
					c0.36,0.42,0.66,0.76,0.87,1c0.22,0.25,0.54,0.39,0.87,0.39s0.64-0.14,0.86-0.39c0.31-0.35,0.6-0.68,0.87-1
					c2.29-2.6,3.67-4.17,4.5-5.13c0.94-1.07,1.19-1.36,1.26-1.44c1.46-1.72,2.26-3.94,2.26-6.24c0-1.31-0.26-2.56-0.73-3.7
					C19.52,5.43,20,4.49,20,3.44z M18.7,9.75c0,2.18-0.79,4.21-2.07,5.72c0,0-4.37,4.99-6.14,7.02c-0.11,0.11-0.2,0.22-0.28,0.31
					l-0.01,0.01c-0.07,0.09-0.13,0.16-0.19,0.22c-0.14,0.16-0.39,0.16-0.52,0c-0.12-0.14-0.28-0.32-0.48-0.54
					c-1.75-2-6.03-6.89-6.04-6.9C1.62,14.03,0.8,12,0.8,9.75c0-4.93,4.02-8.95,8.95-8.95c1.42,0,2.77,0.33,3.96,0.93
					c-0.3,0.5-0.47,1.09-0.47,1.71c0,1.87,1.52,3.38,3.38,3.38c0.52,0,1.02-0.12,1.46-0.34C18.48,7.49,18.7,8.6,18.7,9.75z
					 M17.82,5.87v0.01c-0.36,0.17-0.77,0.27-1.2,0.27c-1.5,0-2.71-1.21-2.71-2.71c0-0.51,0.14-0.99,0.38-1.39
					c0.14-0.24,0.32-0.45,0.52-0.63c0.48-0.43,1.11-0.69,1.81-0.69c1.5,0,2.71,1.21,2.71,2.71c0,0.78-0.33,1.48-0.85,1.98
					C18.28,5.6,18.06,5.75,17.82,5.87z"/>
				<path class="st1" d="M11.35,8.36v2.1h1.98l-0.86,0.55v2.37c0.01,0.29,0.23,0.51,0.52,0.52c0.29,0.01,0.54-0.22,0.55-0.52V5.99
					C12.32,6.11,11.38,7.13,11.35,8.36z"/>
				<path class="st1" d="M9.24,8.11H8.7V5.97H8.15v2.14H7.6V5.97H7.05v2.14H6.5V5.97H5.96v2.2c0.01,0.57,0.47,1.01,1.03,1.01h1.18
					L7.33,9.72v3.65c0.01,0.29,0.24,0.53,0.53,0.54c0.31,0,0.56-0.24,0.57-0.54V9.18h0.34c0.57,0,1.03-0.45,1.04-1.01v-2.2H9.24
					V8.11z"/>
			</g>
		</g>
	</g>
</g>
</svg>
