<?xml version="1.0" encoding="utf-8"?>
<!-- Generator: Adobe Illustrator 25.0.0, SVG Export Plug-In . SVG Version: 6.00 Build 0)  -->
<svg version="1.1" id="Layer_1" xmlns="http://www.w3.org/2000/svg" xmlns:xlink="http://www.w3.org/1999/xlink" x="0px" y="0px"
	 viewBox="0 0 20 25.425" style="enable-background:new 0 0 20 25.425;" xml:space="preserve" width="30px" height="38px">
<style type="text/css">
	.st0{opacity:0.4;fill:url(#SVGID_1_);}
	.st1{fill:#FFFFFF;}
	.st2{opacity:0.4;fill:url(#SVGID_2_);}
	.st3{fill:#00A651;}
	.st4{fill:#FBB040;}
	.st5{fill:#39B54A;}
	.st6{fill:#EC2029;}
	.st7{opacity:0.4;fill:url(#SVGID_3_);}
	.st8{fill:#27AAE1;}
	.st9{opacity:0.4;fill:url(#SVGID_4_);}
	.st10{opacity:0.4;fill:url(#SVGID_5_);}
	.st11{opacity:0.4;fill:url(#SVGID_6_);}
	.st12{opacity:0.4;fill:url(#SVGID_7_);}
</style>
<g>
	<g>
		<g>
			<circle class="st1" cx="9.818" cy="9.939" r="7.053"/>

				<radialGradient id="SVGID_1_" cx="9.7145" cy="-591.1274" r="5.133" gradientTransform="matrix(1 0 0 0.2874 0 193.8545)" gradientUnits="userSpaceOnUse">
				<stop  offset="0" style="stop-color:#000000"/>
				<stop  offset="1" style="stop-color:#000000;stop-opacity:0"/>
			</radialGradient>
			<ellipse class="st0" cx="9.715" cy="23.949" rx="5.133" ry="1.475"/>
			<path class="st5" d="M10.199,22.811c-0.004,0.005-0.009,0.01-0.013,0.015C10.192,22.819,10.196,22.814,10.199,22.811z"/>
			<path class="st1" d="M9.748,23.949c-0.331,0-0.646-0.143-0.864-0.392c-1.335-1.524-6.505-7.427-6.513-7.435l-0.004-0.004
				c-0.749-0.867-1.333-1.844-1.737-2.906C0.212,12.11,0,10.945,0,9.75C0,4.374,4.373,0,9.749,0c5.376,0,9.75,4.374,9.75,9.75
				c0,2.302-0.802,4.518-2.259,6.24l-0.001-0.001c-0.142,0.165-1.013,1.161-6.627,7.568C10.394,23.806,10.079,23.949,9.748,23.949z"
				/>
			<path class="st8" d="M18.696,9.75c0,2.185-0.787,4.206-2.069,5.722c-0.002,0.003-5.35,6.109-6.619,7.557
				c-0.138,0.158-0.383,0.158-0.522,0c-1.243-1.42-6.51-7.433-6.513-7.436C1.62,14.027,0.802,11.997,0.802,9.75
				c0-4.934,4.013-8.948,8.947-8.948S18.696,4.816,18.696,9.75z"/>
			<line class="st5" x1="10.207" y1="22.803" x2="10.201" y2="22.809"/>
		</g>
		<path id="Path_946" class="st1" d="M8.375,5.423L7.481,6.418c0.357,0.328,0.386,0.881,0.066,1.244
			C7.38,7.849,7.142,7.956,6.891,7.954c-0.218,0.003-0.43-0.078-0.59-0.227L5.407,8.729l5.608,5.038l0.876-0.983
			c-0.37-0.334-0.399-0.905-0.066-1.275c0.17-0.194,0.415-0.305,0.673-0.304c0.223,0.001,0.437,0.084,0.602,0.233l0.881-0.979
			L8.375,5.423z M11.719,10.25L11.33,9.893l0.363-0.399l0.389,0.35L11.719,10.25z M10.992,11.049l-0.393-0.35l0.363-0.405
			l0.393,0.358L10.992,11.049z M7.69,8.933l0.393,0.358L7.72,9.69L7.327,9.34L7.69,8.933z M8.423,8.135l0.389,0.35L8.448,8.89
			L8.059,8.532L8.423,8.135z M8.786,7.73L9.15,7.33l0.393,0.358L9.18,8.087L8.786,7.73z M10.258,11.854l-0.389-0.358l0.363-0.399
			l0.393,0.358L10.258,11.854z"/>
	</g>
	<g>
		<g>
			<path class="st1" d="M16.62,6.823c-1.864,0-3.38-1.516-3.38-3.38s1.516-3.38,3.38-3.38S20,1.579,20,3.442
				S18.484,6.823,16.62,6.823z M16.62,1.399c-1.126,0-2.043,0.916-2.043,2.043s0.917,2.043,2.043,2.043s2.043-0.916,2.043-2.043
				S17.746,1.399,16.62,1.399z"/>
		</g>
		<g>
			<circle class="st5" cx="16.62" cy="3.442" r="2.712"/>
		</g>
	</g>
</g>
</svg>
