<svg width="100%" height="100%" viewBox="0 0 36 36" version="1.1" xmlns="http://www.w3.org/2000/svg" xmlns:xlink="http://www.w3.org/1999/xlink" xml:space="preserve" xmlns:serif="http://www.serif.com/" style="fill-rule:evenodd;clip-rule:evenodd;stroke-linejoin:round;stroke-miterlimit:2;">
    <g id="Right_Arrow" transform="matrix(1,0,0,1,1,1)">
        <g transform="matrix(-3.82857e-16,1,-1,-3.82857e-16,34,0)">
            <path id="Rectangle_4-2" d="M34,17C34,7.617 26.383,0 17,0C7.617,0 0,7.617 0,17C0,26.383 7.617,34 17,34C26.383,34 34,26.383 34,17Z" style="fill:white;"/>
        </g>
        <g id="Icons_24px_Arrow_Down" transform="matrix(-3.82857e-16,1,-1,-3.82857e-16,24.216,7)">
            <path id="Icon" d="M19.566,9.781L18.131,11.216L9.783,2.868L1.435,11.216L0,9.781L9.781,0L19.566,9.781Z" style="fill:rgb(112,112,112);fill-rule:nonzero;"/>
        </g>
    </g>
</svg>
