<svg width="100%" height="100%" viewBox="0 0 24 24" version="1.1" xmlns="http://www.w3.org/2000/svg" xmlns:xlink="http://www.w3.org/1999/xlink" xml:space="preserve" xmlns:serif="http://www.serif.com/" style="fill-rule:evenodd;clip-rule:evenodd;stroke-linejoin:round;stroke-miterlimit:2;">
    <g transform="matrix(1.05895,0,0,1.0981,-67.9876,-6.01357)">
        <path d="M86.867,19.223C85.135,18.833 83.335,18.854 81.613,19.285C83.425,16.78 84.396,13.764 84.386,10.673C81.95,11.655 79.829,13.286 78.254,15.387C78.26,12.183 77.31,9.049 75.527,6.387C73.743,9.048 72.798,12.184 72.815,15.387C71.236,13.289 69.116,11.659 66.683,10.673C66.666,13.763 67.632,16.78 69.441,19.285C67.724,18.854 65.93,18.833 64.203,19.223C65.501,21.24 67.406,22.794 69.642,23.66C68.529,24.026 67.502,24.613 66.622,25.386L67.978,25.786C70.428,26.464 73.725,26.818 75.527,25.709C77.345,26.818 80.642,26.464 83.076,25.786L84.447,25.386C83.562,24.613 82.529,24.026 81.412,23.66C83.655,22.798 85.566,21.243 86.867,19.223Z" style="fill-rule:nonzero;"/>
    </g>
</svg>
