<?xml version="1.0" encoding="UTF-8" standalone="no"?>
<!DOCTYPE svg PUBLIC "-//W3C//DTD SVG 1.1//EN" "http://www.w3.org/Graphics/SVG/1.1/DTD/svg11.dtd">
<svg width="100%" height="100%" viewBox="0 0 100 18" version="1.1" xmlns="http://www.w3.org/2000/svg" xmlns:xlink="http://www.w3.org/1999/xlink" xml:space="preserve" xmlns:serif="http://www.serif.com/" style="fill-rule:evenodd;clip-rule:evenodd;stroke-linejoin:round;stroke-miterlimit:2;">
    <g>
        <g transform="matrix(1.19216,0,0,2.91847,-10.2118,-2.3369)">
            <path d="M92.447,1.143C92.447,0.954 92.071,0.801 91.608,0.801L9.405,0.801C8.942,0.801 8.566,0.954 8.566,1.143L8.566,1.829C8.566,2.018 8.942,2.171 9.405,2.171L91.608,2.171C92.071,2.171 92.447,2.018 92.447,1.829L92.447,1.143Z"/>
        </g>
        <g transform="matrix(1.19216,0,0,2.91847,-10.2118,4.6631)">
            <path d="M92.447,1.143C92.447,0.954 92.071,0.801 91.608,0.801L9.405,0.801C8.942,0.801 8.566,0.954 8.566,1.143L8.566,1.829C8.566,2.018 8.942,2.171 9.405,2.171L91.608,2.171C92.071,2.171 92.447,2.018 92.447,1.829L92.447,1.143Z"/>
        </g>
        <g transform="matrix(1.19216,0,0,2.91847,-10.2118,11.6631)">
            <path d="M92.447,1.143C92.447,0.954 92.071,0.801 91.608,0.801L9.405,0.801C8.942,0.801 8.566,0.954 8.566,1.143L8.566,1.829C8.566,2.018 8.942,2.171 9.405,2.171L91.608,2.171C92.071,2.171 92.447,2.018 92.447,1.829L92.447,1.143Z"/>
        </g>
    </g>
</svg>
