<svg xmlns="http://www.w3.org/2000/svg" xmlns:xlink="http://www.w3.org/1999/xlink" viewBox="0 0 29.578 32.011">
  <path d="M153.534,118.124a6.583,6.583,0,0,0-.6-7.823l-.007-.013.01-.005a1.01,1.01,0,0,0,.652-1.494,3.272,3.272,0,0,1-.234-1.053,1.236,1.236,0,0,0,.608-.114,1.173,1.173,0,0,0,.553-.157,1.562,1.562,0,0,0-1.178-.762,1.946,1.946,0,0,0,.39-1.449,2.383,2.383,0,0,1,.765-1.791,6.392,6.392,0,0,1-1.751.845s-.724.04-.624-1.247c0,0-.221,1.227-.5,1.247,0,0-1,.393-1.429-1.308,0,0,.151,1.52-.644,1.429,0,0-.624.02-.926-.986,0,0,.383,1.348-.08,1.509,0,0-.262.222-1.006-.382a1.512,1.512,0,0,0,.845,1.253,1.154,1.154,0,0,0,.795.06s.338.015.023.347a.405.405,0,0,1-.029.03l-.579.451a10.477,10.477,0,0,0-3.014,5.415c-.294,2.019-2.576,3.19-2.576,3.19-4.1,2.75-4.712-2.312-4.712-2.312-.878-6.995-2.692-6.088-2.692-6.088-.323.146-.469,0-.469,0C129.01,102.5,125,108.7,125,108.7a21.674,21.674,0,0,1,3.892-1.962c.762,0,.469.235.469.235-4.683,2.692-2.02,7.609-2.02,7.609-.614-5.619,2.9-6.322,2.9-6.322,1.024-.088.643.439.643.439a9.575,9.575,0,0,0-1.4,2.282c-2.634,7.082-.117,11.415-.117,11.415-.011-.024-.02-.047-.03-.071a4.789,4.789,0,0,1-.058-2.592c.088-.849.7-.674.7-.674v1l.235.117a4.356,4.356,0,0,0,.233,4.332,4.81,4.81,0,0,1,.059-2.488c.008-.028.015-.055.023-.08.228-.768.475-.33.475-.33-.644,1.844.38,2.6.38,2.6a1.224,1.224,0,0,1,.088-1.112c.293-.643.966.293.966.293.175.35.906.087.906.087-.116-.468.264-.439.264-.439l.352.732c0-.468.673-1,.673-1a3.039,3.039,0,0,1,.438,1.639h.44l.059-.264c0-.292.379-.438.379-.438l.073.007.1.647c.242.681,1.433,1.2,1.433,1.2a1.8,1.8,0,0,1-.023-1.1c.263-.615.439-.4.439-.4a1.663,1.663,0,0,0,1.536,1.119c-.087.9,1.465,1.88,1.465,1.88l-.047,1.347a5.471,5.471,0,0,0,.4,1.694,1.881,1.881,0,0,1,.317,1.9,2.253,2.253,0,0,0-.856.637l-.044.132c-.417-.066-.68.461-.68.461a1.6,1.6,0,0,1,.878-.066h.219c.2-.066.878-.308.878-.308.5.008.64-.117.64-.117a3.2,3.2,0,0,0,1.258.495.581.581,0,0,0,.322-.027h.171l-.189.108a.632.632,0,0,0-.037.6c.293-.293.5-.2.5-.2l.175.088a.815.815,0,0,1,.731-.264.238.238,0,0,1,.123.056,8.252,8.252,0,0,1,.873,1.057,2.7,2.7,0,0,1,.848.351,1.87,1.87,0,0,0-.292-.526l.051-.032.019-.077a.52.52,0,0,0-.075-.2,1.689,1.689,0,0,0-.492-.531l-.012-.009.014,0a5.225,5.225,0,0,0,1.782.233c.263-.234,1.2-.147,1.2-.147a1.657,1.657,0,0,0-1.142-.38l-.007-.079-.028-.063-.072-.038c-1.713-.08-1.882-.7-1.882-.7a3.341,3.341,0,0,1-.983-2.471c-.007-.1.1-.141.1-.141l.078-.093.047-.109a.481.481,0,0,0,.014-.226,7.239,7.239,0,0,1,1.034-2.755,3.707,3.707,0,0,0,.936-2.166,54.637,54.637,0,0,0,5.794-6.38m-10.213,13.608c-.043-.025-.3-.183-.3-.183a2.654,2.654,0,0,1-.152-.693,22.754,22.754,0,0,1,.058-2.4l.28-.251.541,1.506c-.07,1.21.522,1.057.522,1.057l.387,1.088,0,.012a1.069,1.069,0,0,1-.326-.128l-.159-.007a.833.833,0,0,1-.459.07,1.856,1.856,0,0,1-.265-.057Zm1.609,1.005a.454.454,0,0,0-.156.078l-.28.369c.029-.071-.06-.06-.055-.105a.636.636,0,0,0-.257-.408c-.276-.126-.381-.166-.61-.269l.409-.059a3.38,3.38,0,0,0,.414-.205l.057-.151c.006-.086.132-.037.211-.078l.011.008.261.8,0,.015Z" transform="translate(-125 -103)" />
</svg>