<?xml version="1.0" encoding="UTF-8" standalone="no"?>
<!DOCTYPE svg PUBLIC "-//W3C//DTD SVG 1.1//EN" "http://www.w3.org/Graphics/SVG/1.1/DTD/svg11.dtd">
<svg width="100%" height="100%" viewBox="0 0 230 62" version="1.1" xmlns="http://www.w3.org/2000/svg" xmlns:xlink="http://www.w3.org/1999/xlink" xml:space="preserve" xmlns:serif="http://www.serif.com/" style="fill-rule:evenodd;clip-rule:evenodd;stroke-linejoin:round;stroke-miterlimit:2;">
    <path d="M121.2,17.5L121.2,15C121.2,9.9 117.9,7.6 114.7,8.8C112.8,9.5 111.6,11.5 111.6,13.5C111.6,15.9 112.2,17.8 114.6,20.5L125.2,32.7C129.5,37.6 132.1,40.8 132.1,47.9C132.1,56.5 124.9,61.3 116.4,61.3C107.8,61.3 100.9,56.4 100.9,47.9L100.9,41.7L111.5,41.7L111.5,47.2C111.5,50.9 113.6,52.7 116.3,52.7C118.9,52.7 121.1,50.7 121.1,47.2C121.1,44 119.8,41.7 117.6,39.1L108.7,30C103.1,23.3 100.7,21.5 100.7,13.3C100.7,5.2 107.2,0 116.3,0C125.4,0 131.8,5.4 131.8,13.3L131.8,17.5L121.2,17.5ZM66.1,13.3L66.1,47.6C66.1,53.7 61.4,61 50.8,61C39,61 34.9,53.7 34.9,47.6L34.9,13.3C34.9,7.2 39.1,0.1 50.8,0.1C61.3,0.1 66.1,7.2 66.1,13.3ZM99.3,13.3L99.3,47.6C99.3,53.7 94.6,61 84,61C72.2,61 68,53.7 68,47.6L68,13.3C68,7.2 72.2,0.1 83.9,0.1C94.5,0.1 99.3,7.2 99.3,13.3ZM24.1,60.3L14,36.4L10.6,36.4L10.6,60.3L0,60.3L0,0.9L17.9,0.9C28.2,0.9 33.1,8.4 33.1,17.9C33.1,26.7 29.2,32.4 24.1,35L35.4,60.4L24.1,60.4L24.1,60.3ZM218.3,60.3L210.2,36.4L206.8,36.4L206.8,60.3L196.2,60.3L196.2,0.9L214.1,0.9C224.4,0.9 229.3,8.4 229.3,17.9C229.3,26.7 225.4,32.4 220.3,35L229.6,60.4L218.3,60.4L218.3,60.3ZM194.2,9.2L177.9,9.2L177.9,27.1L191.9,27.1L191.9,36.4L178.3,36.4L178.3,51.7L194.2,51.7L194.2,60.3L167.3,60.3L167.3,0.9L194.2,0.9L194.2,9.2ZM165.6,9.2L154.7,9.2L154.7,60.3L144.1,60.3L144.1,9.2L133.1,9.2L133.1,0.9L165.6,0.9L165.6,9.2ZM55.4,13.5C55.4,11.7 53.7,8.5 50.7,8.5C47,8.5 45.5,11.7 45.5,13.3L45.5,47.3C45.5,49.2 47,52.4 50.7,52.4C53.7,52.4 55.4,49.1 55.4,47.3L55.4,13.5ZM88.6,13.5C88.6,11.7 86.9,8.5 83.9,8.5C80.2,8.5 78.7,11.7 78.7,13.3L78.7,47.3C78.7,49.2 80.2,52.4 83.9,52.4C86.9,52.4 88.6,49.1 88.6,47.3L88.6,13.5ZM10.7,9.1L10.7,27.1L14,27.1C20.8,27.1 22.7,26.3 22.7,17.6C22.7,12.9 21.6,9.1 17.5,9.1L10.7,9.1ZM206.6,9.1L206.6,27.1L209.9,27.1C216.7,27.1 218.6,26.3 218.6,17.6C218.6,12.9 217.5,9.1 213.4,9.1L206.6,9.1Z" style="fill-rule:nonzero;"/>
</svg>
