<svg width="100%" height="100%" viewBox="0 0 24 24" version="1.1" xmlns="http://www.w3.org/2000/svg" xmlns:xlink="http://www.w3.org/1999/xlink" xml:space="preserve" xmlns:serif="http://www.serif.com/" style="fill-rule:evenodd;clip-rule:evenodd;stroke-linejoin:round;stroke-miterlimit:2;">
    <g id="Path_12" transform="matrix(0.8,0,0,0.8,-5.52,-5.366)">
        <path d="M17.286,7.115L14.158,10.6C15.391,11.743 15.494,13.686 14.388,14.952C13.806,15.606 12.97,15.978 12.095,15.973C11.331,15.982 10.591,15.698 10.03,15.18L6.9,18.68L26.523,36.3L29.587,32.86C28.31,31.695 28.206,29.69 29.357,28.399C29.951,27.72 30.811,27.332 31.713,27.335C32.491,27.337 33.242,27.628 33.818,28.151L36.9,24.733L17.286,7.115ZM28.983,24L27.623,22.749L28.895,21.349L30.255,22.573L28.983,24ZM26.44,26.8L25.064,25.576L26.336,24.159L27.712,25.41L26.44,26.8ZM14.89,19.4L16.266,20.651L14.994,22.051L13.618,20.82L14.89,19.4ZM17.452,16.6L18.812,17.824L17.54,19.241L16.18,17.99L17.452,16.6ZM18.724,15.183L20,13.788L21.376,15.039L20.104,16.439L18.724,15.183ZM23.873,29.611L22.513,28.36L23.785,26.96L25.161,28.211L23.873,29.611Z" style="fill-rule:nonzero;"/>
    </g>
</svg>
