<?xml version="1.0" encoding="UTF-8" standalone="no"?>
<!DOCTYPE svg PUBLIC "-//W3C//DTD SVG 1.1//EN" "http://www.w3.org/Graphics/SVG/1.1/DTD/svg11.dtd">
<svg width="100%" height="100%" viewBox="0 0 100 18" version="1.1" xmlns="http://www.w3.org/2000/svg" xmlns:xlink="http://www.w3.org/1999/xlink" xml:space="preserve" xmlns:serif="http://www.serif.com/" style="fill-rule:evenodd;clip-rule:evenodd;stroke-linejoin:round;stroke-miterlimit:2;">
    <path d="M50.011,0.25L50.037,0.25L50.057,0.251C50.092,0.252 50.127,0.254 50.162,0.257L50.202,0.261L50.244,0.267L50.286,0.273L50.328,0.281L50.37,0.289L50.411,0.299L50.414,0.3C50.439,0.306 50.465,0.313 50.49,0.32L98.49,14.32C99.417,14.59 99.95,15.563 99.68,16.49C99.41,17.417 98.437,17.95 97.51,17.68L50,3.823L2.49,17.68C1.563,17.95 0.59,17.417 0.32,16.49C0.05,15.563 0.583,14.59 1.51,14.32L49.51,0.32C49.535,0.313 49.561,0.306 49.586,0.3L49.592,0.298L49.63,0.289L49.672,0.281L49.714,0.273L49.756,0.267L49.798,0.261L49.838,0.257C49.873,0.254 49.908,0.252 49.943,0.251L49.969,0.25L49.99,0.25L50.011,0.25Z"/>
</svg>
