<svg id="heart" xmlns="http://www.w3.org/2000/svg" viewBox="0 0 13.333 12.234">
  <path id="Icon" d="M6.666,12.234h0c-.014-.013-1.445-1.277-2.478-2.24-.08-.075-.179-.164-.292-.266C2.73,8.673,0,6.2,0,3.667A3.671,3.671,0,0,1,3.667,0,3.869,3.869,0,0,1,5.757.609L5.726.648,5.715.662H5.84a3.749,3.749,0,0,1,.826.73s0,0,0-.006A3.846,3.846,0,0,1,7.493.662h.125L7.576.609A3.868,3.868,0,0,1,9.667,0a3.671,3.671,0,0,1,3.667,3.667c0,2.536-2.73,5.006-3.9,6.061-.113.1-.211.191-.292.266-1.037.967-2.465,2.227-2.479,2.24ZM3.667,1.2A2.47,2.47,0,0,0,1.2,3.667c0,1.011.639,2.224,1.9,3.606.318.35.66.693,1.076,1.082.146.137.477.438.675.618l.157.143c.171.159.364.338.59.545l.091.082c.325.3.676.612.979.885.325-.291.655-.589.98-.885l.09-.082c.193-.176.392-.359.591-.544L8.565,8.9c.2-.179.465-.424.595-.545.417-.388.759-.732,1.076-1.082,1.259-1.381,1.9-2.595,1.9-3.606A2.469,2.469,0,0,0,9.667,1.2a2.7,2.7,0,0,0-1.546.487,2.408,2.408,0,0,0-.5.437L6.666,3.363,5.715,2.124a2.408,2.408,0,0,0-.5-.437A2.7,2.7,0,0,0,3.667,1.2Z" fill="#707070"/>
</svg>
