<svg width="100%" height="100%" viewBox="0 0 24 24" version="1.1" xmlns="http://www.w3.org/2000/svg" xmlns:xlink="http://www.w3.org/1999/xlink" xml:space="preserve" xmlns:serif="http://www.serif.com/" style="fill-rule:evenodd;clip-rule:evenodd;stroke-linejoin:round;stroke-miterlimit:2;">
    <g transform="matrix(1.15472,0,0,1.18603,-1.73811,-1.76811)">
        <path d="M7.872,9.436L5.439,9.436C5.516,9.547 5.547,9.599 5.585,9.645C7.562,12.108 9.539,14.573 11.514,17.038C11.576,17.151 11.695,17.221 11.824,17.221C11.891,17.221 11.957,17.202 12.014,17.166C13.579,16.53 15.15,15.91 16.719,15.285C16.79,15.257 16.858,15.224 16.953,15.185L13.511,12.125L13.764,11.825L17.338,14.998L21.197,12.005L15.828,9.275L16.235,8.634C16.572,8.804 16.907,8.973 17.242,9.143L21.949,11.536C22.378,11.754 22.402,12.036 22.019,12.329C20.599,13.43 19.178,14.53 17.757,15.629C17.652,15.711 17.536,15.778 17.413,15.829C15.722,16.507 14.027,17.177 12.338,17.861C12.173,17.931 12.028,18.039 11.913,18.176C11.005,19.276 10.113,20.383 9.204,21.483C9.119,21.591 9.004,21.672 8.873,21.716C8.69,21.765 8.565,21.633 8.464,21.484C7.641,20.27 6.817,19.057 5.991,17.845L1.647,11.456C1.426,11.13 1.457,10.966 1.785,10.742C2.712,10.108 3.637,9.471 4.569,8.842C4.69,8.763 4.831,8.719 4.975,8.712C5.733,8.687 6.491,8.682 7.249,8.664C7.354,8.649 7.457,8.705 7.501,8.801C7.604,9.001 7.729,9.195 7.872,9.436ZM11.427,17.55L4.95,9.488L2.408,11.227L8.855,20.707L11.427,17.55ZM11.894,13.019C11.46,12.547 11.042,12.113 10.646,11.658C9.9,10.8 9.136,9.958 8.437,9.058C7.719,8.161 7.342,7.038 7.373,5.89C7.436,3.457 9.455,1.491 11.888,1.491C14.047,1.491 15.919,3.039 16.325,5.159C16.508,6.09 16.361,7.057 15.909,7.892C15.53,8.597 15.072,9.257 14.544,9.86C13.672,10.906 12.794,11.946 11.894,13.019ZM14.12,6.112C14.12,6.109 14.12,6.107 14.12,6.104C14.12,4.88 13.113,3.873 11.889,3.873C10.665,3.873 9.658,4.88 9.658,6.104C9.658,7.328 10.665,8.335 11.889,8.335C11.89,8.335 11.89,8.335 11.891,8.335C13.109,8.329 14.111,7.33 14.122,6.112L14.12,6.112Z" style="fill-rule:nonzero;"/>
    </g>
</svg>
